<svg xmlns="http://www.w3.org/2000/svg" width="238" height="44" viewBox="0 0 238 44">
    <g fill="none" fill-rule="evenodd">
        <path stroke="#FFF" stroke-width=".5" d="M83.077 12.36c.015-.751.023-1.588.023-2.51a92.849 92.849 0 0 0-.023-2.517 83.605 83.605 0 0 0-.036-1.009 3.265 3.265 0 0 0-.036-.391c.17.019.363.028.578.028.215 0 .407-.01.577-.028-.014.07-.027.2-.036.387a67.02 67.02 0 0 0-.058 2.885c.674.059 1.44.09 2.3.09.863 0 1.634-.031 2.31-.09l-.02-1.87a72.2 72.2 0 0 0-.038-1.015 2.873 2.873 0 0 0-.036-.387c.17.019.363.028.578.028.214 0 .408-.01.578-.028a2.989 2.989 0 0 0-.037.391 77.58 77.58 0 0 0-.036 1.009c-.014.749-.022 1.585-.022 2.511a91.49 91.49 0 0 0 .022 2.516c.015.486.028.822.036 1.009.01.187.022.317.037.391a5.447 5.447 0 0 0-.578-.027c-.215 0-.408.009-.578.027.015-.07.027-.2.036-.386.01-.186.021-.525.037-1.014.018-.718.026-1.52.022-2.404a23.586 23.586 0 0 0-2.301-.09c-.862 0-1.63.03-2.305.09-.011.888-.005 1.69.018 2.404.014.49.026.828.035 1.014.009.187.022.317.036.386a5.42 5.42 0 0 0-.577-.027c-.215 0-.409.009-.578.027.015-.074.028-.205.04-.394.006-.185.018-.52.032-1.006z"/>
        <path fill="#FFF" d="M83.077 12.36c.015-.751.023-1.588.023-2.51a92.849 92.849 0 0 0-.023-2.517 83.605 83.605 0 0 0-.036-1.009 3.265 3.265 0 0 0-.036-.391c.17.019.363.028.578.028.215 0 .407-.01.577-.028-.014.07-.027.2-.036.387a67.02 67.02 0 0 0-.058 2.885c.674.059 1.44.09 2.3.09.863 0 1.634-.031 2.31-.09l-.02-1.87a72.2 72.2 0 0 0-.038-1.015 2.873 2.873 0 0 0-.036-.387c.17.019.363.028.578.028.214 0 .408-.01.578-.028a2.989 2.989 0 0 0-.037.391 77.58 77.58 0 0 0-.036 1.009c-.014.749-.022 1.585-.022 2.511a91.49 91.49 0 0 0 .022 2.516c.015.486.028.822.036 1.009.01.187.022.317.037.391a5.447 5.447 0 0 0-.578-.027c-.215 0-.408.009-.578.027.015-.07.027-.2.036-.386.01-.186.021-.525.037-1.014.018-.718.026-1.52.022-2.404a23.586 23.586 0 0 0-2.301-.09c-.862 0-1.63.03-2.305.09-.011.888-.005 1.69.018 2.404.014.49.026.828.035 1.014.009.187.022.317.036.386a5.42 5.42 0 0 0-.577-.027c-.215 0-.409.009-.578.027.015-.074.028-.205.04-.394.006-.185.018-.52.032-1.006"/>
        <path stroke="#FFF" stroke-width=".5" d="M98.735 12.808c-.768-.72-1.152-1.662-1.152-2.825 0-1.24.396-2.248 1.186-3.02.79-.772 1.82-1.158 3.09-1.158 1.242 0 2.246.362 3.012 1.083.766.722 1.15 1.665 1.15 2.828 0 1.24-.396 2.247-1.186 3.017-.79.77-1.824 1.155-3.097 1.155-1.233 0-2.234-.36-3.003-1.08zm5.288-.406c.555-.661.832-1.543.832-2.647 0-1.048-.277-1.886-.832-2.514-.553-.628-1.295-.942-2.224-.942-.922 0-1.662.332-2.217.995-.556.663-.832 1.546-.832 2.65 0 1.044.276 1.88.832 2.509.555.627 1.295.94 2.217.94.93 0 1.671-.33 2.224-.99z"/>
        <path fill="#FFF" d="M98.735 12.808c-.768-.72-1.152-1.662-1.152-2.825 0-1.24.396-2.248 1.186-3.02.79-.772 1.82-1.158 3.09-1.158 1.242 0 2.246.362 3.012 1.083.766.722 1.15 1.665 1.15 2.828 0 1.24-.396 2.247-1.186 3.017-.79.77-1.824 1.155-3.097 1.155-1.233 0-2.234-.36-3.003-1.08zm5.288-.406c.555-.661.832-1.543.832-2.647 0-1.048-.277-1.886-.832-2.514-.553-.628-1.295-.942-2.224-.942-.922 0-1.662.332-2.217.995-.556.663-.832 1.546-.832 2.65 0 1.044.276 1.88.832 2.509.555.627 1.295.94 2.217.94.93 0 1.671-.33 2.224-.99z"/>
        <path stroke="#FFF" stroke-width=".5" d="M115.51 12.36c.014-.753.023-1.59.023-2.514a86.319 86.319 0 0 0-.046-3.335l-.6.005c-.37 0-.74.01-1.113.028-.372.019-.623.04-.753.067.023-.107.034-.232.034-.373 0-.14-.011-.264-.034-.372.415.026.883.049 1.406.067.522.019.924.028 1.205.028h.589c.304 0 .717-.01 1.24-.028.522-.018.979-.04 1.371-.067a1.782 1.782 0 0 0-.033.372c0 .14.01.266.033.373a6.628 6.628 0 0 0-.763-.067c-.372-.019-.74-.028-1.103-.028h-.428c-.026.927-.04 2.035-.04 3.324 0 .935.007 1.775.022 2.52.016.486.028.821.038 1.008.008.187.02.319.035.392a5.429 5.429 0 0 0-.577-.027 5.4 5.4 0 0 0-.577.027c.014-.073.027-.205.037-.394.008-.186.02-.52.034-1.006z"/>
        <path fill="#FFF" d="M115.51 12.36c.014-.753.023-1.59.023-2.514a86.319 86.319 0 0 0-.046-3.335l-.6.005c-.37 0-.74.01-1.113.028-.372.019-.623.04-.753.067.023-.107.034-.232.034-.373 0-.14-.011-.264-.034-.372.415.026.883.049 1.406.067.522.019.924.028 1.205.028h.589c.304 0 .717-.01 1.24-.028.522-.018.979-.04 1.371-.067a1.782 1.782 0 0 0-.033.372c0 .14.01.266.033.373a6.628 6.628 0 0 0-.763-.067c-.372-.019-.74-.028-1.103-.028h-.428c-.026.927-.04 2.035-.04 3.324 0 .935.007 1.775.022 2.52.016.486.028.821.038 1.008.008.187.02.319.035.392a5.429 5.429 0 0 0-.577-.027 5.4 5.4 0 0 0-.577.027c.014-.073.027-.205.037-.394.008-.186.02-.52.034-1.006"/>
        <path stroke="#FFF" stroke-width=".5" d="M126.192 13.822a3.23 3.23 0 0 0 .036-.392c.01-.187.022-.523.037-1.009.014-.763.022-1.622.022-2.577 0-.959-.008-1.816-.023-2.572a54.108 54.108 0 0 0-.035-1.009 3.239 3.239 0 0 0-.036-.391c.133.026.356.047.667.064.31.017.626.025.943.025l.862-.006c.344 0 .653-.007.925-.022.273-.014.509-.039.709-.072a2.049 2.049 0 0 0-.034.391c0 .146.011.275.034.387a5.017 5.017 0 0 0-.683-.076 15.25 15.25 0 0 0-.95-.03h-.4c-.349-.004-.676.002-.978.017l-.034 2.85 1.005-.006c.333 0 .675-.01 1.025-.028.35-.018.592-.04.725-.066-.022.11-.032.238-.032.383 0 .14.01.267.032.377a6.318 6.318 0 0 0-.725-.066 20.55 20.55 0 0 0-1.025-.028l-1-.006a113.13 113.13 0 0 0 .029 3.19l.764.011h.38c.344 0 .704-.012 1.078-.037.374-.023.636-.05.789-.08a2.07 2.07 0 0 0-.034.397c0 .145.011.276.034.392a7.71 7.71 0 0 0-.73-.067c-.33-.018-.63-.028-.904-.028l-.862-.005c-.292 0-.593.008-.904.025a6.989 6.989 0 0 0-.707.064z"/>
        <path fill="#FFF" d="M126.192 13.822a3.23 3.23 0 0 0 .036-.392c.01-.187.022-.523.037-1.009.014-.763.022-1.622.022-2.577 0-.959-.008-1.816-.023-2.572a54.108 54.108 0 0 0-.035-1.009 3.239 3.239 0 0 0-.036-.391c.133.026.356.047.667.064.31.017.626.025.943.025l.862-.006c.344 0 .653-.007.925-.022.273-.014.509-.039.709-.072a2.049 2.049 0 0 0-.034.391c0 .146.011.275.034.387a5.017 5.017 0 0 0-.683-.076 15.25 15.25 0 0 0-.95-.03h-.4c-.349-.004-.676.002-.978.017l-.034 2.85 1.005-.006c.333 0 .675-.01 1.025-.028.35-.018.592-.04.725-.066-.022.11-.032.238-.032.383 0 .14.01.267.032.377a6.318 6.318 0 0 0-.725-.066 20.55 20.55 0 0 0-1.025-.028l-1-.006a113.13 113.13 0 0 0 .029 3.19l.764.011h.38c.344 0 .704-.012 1.078-.037.374-.023.636-.05.789-.08a2.07 2.07 0 0 0-.034.397c0 .145.011.276.034.392a7.71 7.71 0 0 0-.73-.067c-.33-.018-.63-.028-.904-.028l-.862-.005c-.292 0-.593.008-.904.025a6.989 6.989 0 0 0-.707.064"/>
        <path stroke="#FFF" stroke-width=".5" d="M138.442 13.822c.015-.074.026-.205.036-.392.01-.187.021-.523.036-1.009.015-.75.023-1.6.023-2.544s-.008-1.793-.023-2.544a60.094 60.094 0 0 0-.035-1.009 3.286 3.286 0 0 0-.037-.391c.171.019.363.028.578.028.215 0 .408-.01.577-.028-.014.07-.025.199-.035.386-.01.187-.022.524-.036 1.013-.015.751-.023 1.599-.023 2.542.003 1.263.015 2.354.035 3.276.251.011.517.014.798.011h.412c.348 0 .709-.012 1.083-.037.374-.023.636-.05.784-.08a2.076 2.076 0 0 0-.034.397c0 .145.012.276.034.392a8.02 8.02 0 0 0-.737-.067 15.783 15.783 0 0 0-.896-.028l-.918-.005c-.299 0-.607.008-.919.025a6.8 6.8 0 0 0-.703.064z"/>
        <path fill="#FFF" d="M138.442 13.822c.015-.074.026-.205.036-.392.01-.187.021-.523.036-1.009.015-.75.023-1.6.023-2.544s-.008-1.793-.023-2.544a60.094 60.094 0 0 0-.035-1.009 3.286 3.286 0 0 0-.037-.391c.171.019.363.028.578.028.215 0 .408-.01.577-.028-.014.07-.025.199-.035.386-.01.187-.022.524-.036 1.013-.015.751-.023 1.599-.023 2.542.003 1.263.015 2.354.035 3.276.251.011.517.014.798.011h.412c.348 0 .709-.012 1.083-.037.374-.023.636-.05.784-.08a2.076 2.076 0 0 0-.034.397c0 .145.012.276.034.392a8.02 8.02 0 0 0-.737-.067 15.783 15.783 0 0 0-.896-.028l-.918-.005c-.299 0-.607.008-.919.025a6.8 6.8 0 0 0-.703.064"/>
        <g fill="#FFF">
            <path d="M85.362 34.854c0 2.388.046 2.684 1.501 2.843l.614.069c.136.114.091.5-.046.568a78.175 78.175 0 0 0-2.957-.068c-.955 0-1.774.022-2.775.068-.137-.068-.183-.433-.046-.568l.478-.069c1.32-.182 1.365-.456 1.365-2.843v-8.395c0-1.934-.045-2.32-1.069-2.434l-.82-.091c-.16-.137-.136-.478.046-.57 1.205-.158 2.616-.18 4.505-.18 1.888 0 3.298.25 4.368.909 1.045.66 1.82 1.843 1.82 3.413 0 2.092-1.297 3.138-2.276 3.617-1 .477-2.206.682-3.138.682-.16-.068-.16-.41-.023-.455 2.457-.455 3.343-1.843 3.343-3.822 0-2.206-1.296-3.64-3.662-3.64-1.205 0-1.228.091-1.228.82v10.146zM94.122 30.918c0-4.55 3.413-8.03 8.1-8.03 5.254 0 7.893 3.798 7.893 7.802 0 4.596-3.502 7.94-7.893 7.94-5.051 0-8.1-3.618-8.1-7.712zm13.719.477c0-3.753-1.661-7.803-6.006-7.803-2.366 0-5.437 1.616-5.437 6.598 0 3.366 1.638 7.734 6.12 7.734 2.73 0 5.323-2.047 5.323-6.529zM114.078 26.664c0-2.39-.046-2.753-1.48-2.867l-.568-.045c-.135-.091-.091-.5.045-.569 1.274.046 2.049.069 2.958.069.888 0 1.66-.023 2.798-.069.136.069.182.478.045.569l-.545.045c-1.342.114-1.387.477-1.387 2.867v7.916c0 1.433.068 2.025.476 2.458.251.25.683.523 2.481.523 1.933 0 2.411-.091 2.775-.296.454-.273 1.046-1.092 1.502-2.253.136-.113.567-.022.567.137 0 .25-.636 2.571-.954 3.185-1.16-.046-3.322-.068-5.665-.068h-2.093c-.955 0-1.684.022-2.958.068-.136-.068-.18-.433-.045-.568l.683-.069c1.32-.136 1.365-.456 1.365-2.843v-8.19zM124.522 30.918c0-4.55 3.413-8.03 8.1-8.03 5.254 0 7.892 3.798 7.892 7.802 0 4.596-3.502 7.94-7.893 7.94-5.05 0-8.1-3.618-8.1-7.712zm13.718.477c0-3.753-1.66-7.803-6.006-7.803-2.365 0-5.437 1.616-5.437 6.598 0 3.366 1.639 7.734 6.12 7.734 2.73 0 5.323-2.047 5.323-6.529zM154.602 34.854c0 2.388.045 2.73 1.365 2.843l.729.069c.136.09.091.5-.046.568a79.33 79.33 0 0 0-2.98-.068c-.91 0-1.706.022-3.162.068-.137-.068-.183-.454 0-.568l.82-.069c1.296-.114 1.41-.456 1.41-2.843v-10.17c0-.705 0-.727-.683-.727h-1.251c-.978 0-2.23.046-2.798.568-.547.5-.775 1.002-1.025 1.57-.181.137-.5.023-.59-.16.364-1.024.704-2.48.863-3.389.068-.045.364-.068.433 0 .136.728.886.706 1.934.706h9.213c1.23 0 1.433-.046 1.774-.637.114-.046.365-.023.41.067-.25.933-.41 2.776-.342 3.459-.09.18-.478.18-.591.045-.067-.57-.227-1.41-.568-1.66-.524-.388-1.388-.57-2.639-.57h-1.615c-.683 0-.66.023-.66.774v10.124zM161.566 30.918c0-4.55 3.413-8.03 8.1-8.03 5.255 0 7.893 3.798 7.893 7.802 0 4.596-3.502 7.94-7.893 7.94-5.051 0-8.1-3.618-8.1-7.712zm13.72.477c0-3.753-1.662-7.803-6.007-7.803-2.366 0-5.437 1.616-5.437 6.598 0 3.366 1.638 7.734 6.12 7.734 2.73 0 5.323-2.047 5.323-6.529zM177.359 23.729c-.137-.137-.114-.455.068-.546.615.046 1.638.069 2.343.069.638 0 1.797-.023 2.595-.069.203.069.18.386.045.546l-.524.045c-.478.046-.751.183-.751.387 0 .273.478 1.433 1.184 3.049 1.274 2.843 2.616 5.687 3.935 8.486.547-1.138 1.16-2.412 1.752-3.686.205-.432.363-.82.363-.933 0-.114-.067-.319-.18-.591-.798-1.82-1.639-3.64-2.505-5.46-.34-.706-.68-1.183-1.455-1.252l-.545-.045c-.16-.182-.137-.455.045-.546.66.046 1.525.069 2.434.069 1.137 0 1.98-.023 2.502-.069.16.069.182.364.045.546l-.59.045c-.888.069-.911.229-.478 1.251a240.805 240.805 0 0 0 1.752 3.96 46.51 46.51 0 0 0 1.342-2.98c.818-1.934.704-2.185-.023-2.23l-.683-.046c-.16-.228-.114-.477.046-.546.614.046 1.296.069 2.139.069.75 0 1.66-.023 2.183-.069.16.069.182.364.046.546l-.66.045c-.956.069-1.364 1.092-1.865 2.025-.479.842-1.433 2.82-1.775 3.617-.114.228-.205.455-.205.546 0 .091.045.273.16.546.774 1.752 1.569 3.458 2.32 5.187a179.343 179.343 0 0 0 2.047-4.8c.456-1.092 1.66-4.117 1.82-4.527.297-.82.684-1.797.684-2.07 0-.319-.274-.501-.752-.524l-.659-.045c-.182-.205-.159-.455.024-.546.863.046 1.478.069 2.183.069.863 0 1.524-.023 2.116-.069.18.069.203.364.045.546l-.432.045c-1.138.114-1.342.797-2.707 3.958l-1.661 3.846c-1 2.32-1.912 4.55-2.844 6.984a.49.49 0 0 1-.273.068.73.73 0 0 1-.319-.068c-.727-2.026-2.046-4.869-2.752-6.462-.819 1.661-2.184 4.573-2.845 6.462a.485.485 0 0 1-.272.068.92.92 0 0 1-.342-.068 158.52 158.52 0 0 0-1.568-3.663c-1.456-3.162-2.867-6.325-4.345-9.487-.433-.932-.707-1.546-1.661-1.638l-.547-.045zM202.183 26.664c0-2.366-.045-2.707-1.387-2.867l-.365-.045c-.136-.091-.09-.5.046-.569.978.046 1.752.069 2.684.069h4.277c1.456 0 2.798 0 3.071-.069.137.386.273 2.025.364 3.026-.09.135-.455.181-.569.044-.34-1.068-.545-1.864-1.727-2.16-.479-.114-1.208-.136-2.208-.136h-1.638c-.682 0-.682.046-.682.91v4.55c0 .636.069.636.75.636h1.32c.956 0 1.66-.046 1.934-.137.273-.09.433-.226.546-.795l.18-.933c.115-.137.502-.137.593.023 0 .545-.09 1.433-.09 2.297 0 .82.09 1.683.09 2.184-.09.159-.478.159-.592.023l-.203-.887c-.091-.41-.251-.751-.706-.865-.32-.091-.864-.114-1.752-.114h-1.32c-.681 0-.75.023-.75.615v3.207c0 1.206.069 1.98.431 2.367.274.272.752.523 2.755.523 1.75 0 2.41-.091 2.911-.342.409-.227 1.024-1.024 1.614-2.207.16-.113.479-.045.57.16-.16.796-.728 2.548-1.023 3.162a271.548 271.548 0 0 0-6.097-.068h-2.049c-.978 0-1.75.022-3.094.068-.135-.068-.18-.433-.045-.568l.751-.069c1.296-.114 1.41-.456 1.41-2.843v-8.19zM215.473 26.686c0-2.16-.069-2.548-1-2.66l-.73-.092c-.159-.114-.159-.478.023-.57 1.274-.112 2.844-.18 5.074-.18 1.41 0 2.752.113 3.798.682 1.092.568 1.89 1.592 1.89 3.184 0 2.161-1.707 3.345-2.844 3.8-.114.136 0 .364.113.545 1.82 2.935 3.026 4.755 4.573 6.052.386.341.955.591 1.568.636.114.046.137.229.024.32-.204.068-.569.113-1.001.113-1.935 0-3.094-.569-4.71-2.866-.59-.842-1.524-2.412-2.228-3.436-.342-.5-.707-.728-1.616-.728-1.023 0-1.069.023-1.069.501v2.867c0 2.387.046 2.661 1.365 2.843l.477.069c.136.114.091.5-.046.568a56.707 56.707 0 0 0-2.706-.068c-.955 0-1.773.022-2.844.068-.136-.068-.182-.41-.046-.568l.57-.069c1.32-.159 1.365-.456 1.365-2.843v-8.168zm1.865 3.253c0 .41 0 .66.07.75.067.07.407.115 1.569.115.818 0 1.682-.091 2.342-.592.615-.477 1.137-1.273 1.137-2.82 0-1.798-1.114-3.504-3.639-3.504-1.41 0-1.478.091-1.478.728v5.323zM232.334 38.63c-1.911 0-3.117-.592-3.55-.842-.273-.5-.569-2.115-.614-3.185.114-.16.455-.205.546-.068.342 1.16 1.273 3.39 3.912 3.39 1.912 0 2.844-1.252 2.844-2.617 0-1-.205-2.115-1.864-3.185l-2.162-1.41c-1.137-.75-2.457-2.047-2.457-3.913 0-2.161 1.684-3.913 4.642-3.913a8.77 8.77 0 0 1 2.114.296c.296.091.615.137.797.137.204.546.409 1.82.409 2.775-.091.137-.454.204-.568.068-.296-1.092-.911-2.57-3.094-2.57-2.23 0-2.707 1.478-2.707 2.525 0 1.32 1.091 2.275 1.933 2.798l1.82 1.137c1.433.888 2.844 2.207 2.844 4.368 0 2.503-1.889 4.21-4.845 4.21"/>
        </g>
        <g fill="#FFF">
            <path d="M.313 6.224s2.514 1.599 4.74 2.818C6.916 10.06 9.89 11.54 9.89 11.54s.198-.061.435-.264l8.589 4.77a15.783 15.783 0 0 0-.958 5.377c0 3.21.968 6.194 2.615 8.698L10.157 35.9a193.726 193.726 0 0 0-2.154-3.358s-.664.007-2.236.787c-1.536.766-2.1 1.563-2.1 1.563s1.3 2.882 2.265 4.647c.893 1.636 2.092 3.381 2.591 4.09.147.207.339.324.528.297a5.819 5.819 0 0 0 3.679-2.046c.338-.402.207-.528.082-.796-.36-.762-1.12-2.364-1.661-3.431l-.232-.438 10.553-5.858c2.938 3.652 7.453 6.003 12.513 6.003 5.061 0 9.572-2.35 12.511-6.002l10.548 5.856-.234.439a157.85 157.85 0 0 0-1.659 3.431c-.128.268-.258.394.08.796a5.822 5.822 0 0 0 3.681 2.046c.187.027.379-.09.526-.298.498-.708 1.697-2.453 2.59-4.089.968-1.765 2.266-4.647 2.266-4.647s-.565-.797-2.1-1.563c-1.57-.78-2.236-.787-2.236-.787s-1.278 1.947-2.151 3.356L47.4 30.12a15.797 15.797 0 0 0 2.612-8.698c0-1.89-.349-3.696-.96-5.38l8.589-4.767c.242.203.435.264.435.264s2.974-1.48 4.84-2.498c2.226-1.219 4.742-2.818 4.742-2.818s.064-.226.056-.54l.112-.064-.146-.256a1.723 1.723 0 0 0-.55-.98l-.048-.087-.034.017a2.52 2.52 0 0 0-.77-.41s-.104.05-.272.137c-.528-.283-1.45-.283-2.143-.218-1.917.179-4.27 1.362-5.622.274-.358-.285-.48-.706-.464-1.12.016-.259.597-.643.866-.828.515-.347 1.154-.557 1.789-.696 1.38-.29 2.79.053 3.82.44.9.344 1.393.944 1.681 1.631-.026-.06.374-.44.318-.584-.682-1.628-3.436-2.797-6.283-1.892-1.503.479-2.57 1.757-2.5 2.745.112 1.607 2.428 1.5 4.416.957.893-.242 2.357-.502 3.311-.298-1.157.586-2.924 1.494-3.684 1.914-1.2.666-4.718 2.787-4.718 2.787s-.08.271.075.813l-8.404 4.666c-2.57-5.398-8.083-9.151-14.48-9.151-6.394 0-11.91 3.75-14.481 9.151L11.1 9.966c.155-.542.072-.813.072-.813S7.654 7.032 6.457 6.366c-.76-.42-2.527-1.328-3.686-1.914.962-.204 2.417.056 3.31.298 1.989.542 4.305.65 4.417-.957.072-.988-1-2.266-2.497-2.745-2.85-.905-5.6.264-6.283 1.892-.056.143.338.523.317.584.285-.687.779-1.287 1.685-1.631 1.026-.387 2.433-.73 3.817-.44.634.139 1.274.35 1.786.696.266.185.855.57.863.828.021.414-.104.835-.458 1.12-1.351 1.088-3.708-.095-5.622-.274-.698-.065-1.615-.065-2.143.218l-.272-.138a2.622 2.622 0 0 0-.776.411l-.032-.017-.048.086a1.712 1.712 0 0 0-.551.981L.14 5.62l.114.064c-.007.314.059.54.059.54zm12.03 35.152s-.741.233-1.58.664c-1.222.627-2.064 1.4-2.064 1.4s-.056-.752.424-1.225c-1.01-1.413-2.24-4.225-2.24-4.225l2.861 3.829s.792-.299 1.25-.402c.898-.2 1.349-.041 1.349-.041zM61.08 37.99s-1.235 2.812-2.242 4.225c.482.473.424 1.225.424 1.225s-.84-.773-2.06-1.4c-.843-.431-1.584-.664-1.584-.664s.453-.16 1.349.041c.458.103 1.25.402 1.25.402l2.863-3.829zM33.985 6.376c8.34 0 15.124 6.749 15.124 15.047 0 8.294-6.784 15.043-15.124 15.043-8.347 0-15.13-6.75-15.13-15.043 0-8.298 6.783-15.047 15.13-15.047z"/>
            <path d="M22.925 14.089a14.16 14.16 0 0 0-.072-1.537 14.257 14.257 0 0 1 11.126-5.32c6.66 0 12.25 4.537 13.824 10.669-.472-.563-.926-1.09-1.499-1.463-.237-.155-.492-.27-.767-.442-.413-.261-.717-.791-1.122-.892-.133.033-.126.27-.033.349-.186.07-.303-.222-.594-.17.046.509.341.75.43 1.208-.827.587-1.813 1.198-2.696 1.614-.077-.587-.418-.902-.535-1.446.544-.138.786.46 1.218.228.328-.172.048-.493.03-.794-.017-.34.164-.667.095-1.037-.13-.685-.93-1.34-1.647-1.368-.682-.029-1.62.481-1.73 1.086-.907.135-1.94-.179-2.711.094-.245.088-.392.325-.584.385-.256.08-.528.011-.765.042-.765.094-1.324.503-1.45 1.189-.933.195-1.162 1.076-1.442 1.914-.592-.074-.568.447-.863.664-2.789-1.608-5.507-3.283-8.213-4.973zm4.233 18.49c-.557-.732-1.575-1.636-2.383-2.364-.336-.3-.984-.626-.845-1.271.098-.484 1.098-.787 1.344-1.19-.003-.228-.003-.462-.009-.69-.815-1.353-3.558-2.168-2.857-4.677.066-.238.293-.433.205-.693-.277-.09-.554.096-.872.079-.357.376-1.12.556-1.833.913-.043.024-.08.053-.12.08.45 4.694 3.19 8.72 7.109 10.955a.86.86 0 0 1 .27-.484c-.156-.224-.156-.43-.01-.659zM19.72 21.413c0 .085.003.17.008.253 1.143-.525 2.218-1.134 3.846-1.19.987-.581 1.946-1.443 3.322-1.619 1.268-.166 2.414.486 3.721.554-.173-.271-.579-.416-.904-.615-2.247-1.356-4.569-2.826-6.856-4.157-.08.386-.122.813-.338 1.075-.168-.013-.405.04-.52-.03a7.72 7.72 0 0 1-.024-1.925 14.086 14.086 0 0 0-2.255 7.654zm24.088 3.723c.768-.36.8-1.4 1.09-2.29.203-.614.443-1.111.576-1.528-.33-.14-.512-.433-.77-.648-.626.625-1.54 1.706-2.023 2.643-.16.313-.472.849-.442 1.075.016.143.282.477.389.584.28.294.74.37 1.18.164zm-14.793 8.979c-.208-.1-.296-.244-.456-.272-.045.208-.072.433-.115.643.35.146.704.277 1.061.394.05-.153.104-.296.032-.455-.08-.192-.333-.217-.522-.31zm12.952-8.859c.165.005.258.088.453.063 0-.146-.232-.337-.352-.479-.048.124-.096.245-.101.416zM39.52 31.43c.312-.516 1.09-.578 1.063-1.423-.493-.219-1.135-.292-1.703-.437-.15.779-.293 1.571-.397 2.388.477-.044.514-.521 1.037-.528zm-.118-13.203c-.423.258-.954.414-1.348.705.189.362.458.647.735.927.464-.303.955-.578 1.315-.982a2.082 2.082 0 0 0-.702-.65zm5.515 6.588c-.402.843-1.841 1.012-3.12.751-.393.834-.713 1.726-1.3 2.362.185.285.428.533.702.829.413.444.882.633.712 1.685-.368.472-.68.92-1.07 1.392-.287.359-.66 1.126-1.095 1.326-.237.106-.767.137-1.18.215-.427.083-.827.201-1.184.217-.49.024-1.157-.127-1.842-.156-.714-.03-1.4-.016-1.978-.052-.872-.05-1.426.149-1.815-.396.152-.34.419-.574.722-.838.275-.23.622-.568 1.075-.458.242.06.346.458.631.513.181.034.422-.093.589-.076.256.028.416.241.664.305.539.14 1.072.041 1.668.091-.271-1.099-.543-2.192-.687-3.414-.69-.19-1.28-.475-1.991-.644-.197.08-.619.242-.973.287-.496-.188-.725-.696-1.189-.991-.715-.455-1.727-.497-2.58-.878-.632.663-1.487 1.105-2.311 1.576-.632 2.008.909 3.062 1.945 3.993.955.86 1.739 1.671 2.205 2.927.802.138 1.623.217 2.463.217 7.581 0 13.78-5.884 14.234-13.31-.12-.099-.235-.213-.365-.298-.445-.293-.85-.486-1.568-.506-.618.907-.871 2.314-1.362 3.33z"/>
        </g>
    </g>
</svg>
